HIERARCHY
ROOT Hips
{
	OFFSET 0.000000 0.000000 0.000000 
	CHANNELS 6 Xposition Yposition Zposition Yrotation Zrotation Xrotation 
	JOINT Lumbar
	{
		OFFSET 0.000000 0.000000 0.000000 
		CHANNELS 3 Zrotation Xrotation Yrotation
		JOINT Neck
		{
			OFFSET 0.000000 0.445665 0.000000 
			CHANNELS 3 Zrotation Xrotation Yrotation
			End Site
			{
				OFFSET 0.000000 0.227535 0.000000 
			}
		}
		JOINT RightShoulder
		{
			OFFSET 0.019635 0.377685 0.194865 
			CHANNELS 3 Zrotation Xrotation Yrotation
			JOINT RightElbow
			{
				OFFSET 0.000000 -0.243375 0.000000 
				CHANNELS 2 Zrotation Yrotation
				JOINT RightWrist
				{
					OFFSET 0.000000 -0.264825 0.000000 
					CHANNELS 2 Zrotation Xrotation
					End Site
					{
						OFFSET 0.006600 -0.176220 0.000990 
					}
				}
			}
		}
		JOINT LeftShoulder
		{
			OFFSET 0.019635 0.377685 -0.194865 
			CHANNELS 3 Zrotation Xrotation Yrotation
			JOINT LeftElbow
			{
				OFFSET 0.000000 -0.243375 0.000000 
				CHANNELS 2 Zrotation Yrotation
				JOINT LeftWrist
				{
					OFFSET 0.000000 -0.264825 0.000000 
					CHANNELS 2 Zrotation Xrotation
					End Site
					{
						OFFSET 0.006600 -0.176220 -0.000990 
					}
				}
			}
		}
	}
	JOINT RightHip
	{
		OFFSET 0.052140 -0.069960 0.075570 
		CHANNELS 3 Zrotation Xrotation Yrotation
		JOINT RightKnee
		{
			OFFSET 0.000000 -0.402270 0.000000 
			CHANNELS 1 Zrotation
			JOINT RightAnkle
			{
				OFFSET 0.000000 -0.404085 0.000000 
				CHANNELS 3 Zrotation Xrotation Yrotation
				End Site
				{
					OFFSET 0.204105 -0.089430 0.008415 
				}
			}
		}
	}
	JOINT LeftHip
	{
		OFFSET 0.052140 -0.069960 -0.075570 
		CHANNELS 3 Zrotation Xrotation Yrotation
		JOINT LeftKnee
		{
			OFFSET 0.000000 -0.402270 0.000000 
			CHANNELS 1 Zrotation
			JOINT LeftAnkle
			{
				OFFSET 0.000000 -0.404085 0.000000 
				CHANNELS 3 Zrotation Xrotation Yrotation
				End Site
				{
					OFFSET 0.204105 -0.089430 -0.008415 
				}
			}
		}
	}
}
MOTION
Frames: 19
Frame Time: 0.02
1.86349 0.31704 0.1417 391.96056 -57.33366 -8.43171 0.43902 0.93724 12.17402 3.81386 -3.6605 -0.83079 70.83427 -12.99883 42.56868 10.70024 90.63721 -23.74758 -8.144 44.90674 34.00323 -23.82905 16.88336 -96.89245 -31.44044 3.26799 87.32502 0.9377 -8.24407 -40.44154 -6.53912 -3.9035 -2.66102 81.01099 21.54288 0.30774 -27.53657 -9.84916 3.69868 2.75151
1.86558 0.3174 0.14074 391.56429 -57.98771 -9.21097 0.25332 0.8346 11.97782 4.40728 -3.7536 -0.83079 71.31101 -13.04211 43.98106 11.57892 90.82088 -24.21078 -7.66344 46.70867 35.57793 -22.89645 15.47255 -94.63938 -30.90908 3.37806 87.9884 1.19114 -8.46552 -40.54809 -6.55047 -3.94936 -2.68883 81.28497 21.50268 -0.59723 -26.32273 -10.10588 3.80784 2.82829
1.86694 0.3174 0.13892 390.80083 -58.63648 -10.14661 0.09879 0.58817 11.85398 5.15434 -3.96181 -0.83079 71.69887 -13.01316 44.67225 12.55482 91.541 -24.70802 -7.12656 48.62664 37.1769 -21.95264 14.40276 -92.11593 -30.45884 3.62167 88.74242 1.44076 -8.80597 -40.76859 -6.55378 -3.96264 -2.70044 81.33844 21.44213 -1.95861 -24.94614 -10.49952 3.96069 2.93562
1.86862 0.31757 0.13748 390.22492 -59.28522 -11.00522 -0.07764 0.42034 11.68569 5.82959 -4.12433 -0.83079 72.13946 -13.0042 45.67505 13.45871 92.01747 -25.17733 -6.62322 50.54836 38.72604 -20.99896 13.17156 -89.84068 -29.98081 3.80344 89.45016 1.68535 -9.08531 -40.93671 -6.56145 -3.99216 -2.72009 81.52218 21.39726 -3.0632 -23.69294 -10.81693 4.0858 3.0238
1.87032 0.31772 0.13608 389.56644 -59.94691 -11.88932 -0.21894 0.19962 11.56456 6.51612 -4.25376 -0.83079 72.52003 -13.05547 46.75152 14.48702 92.47954 -25.70294 -6.08483 52.23591 40.44237 -20.17548 11.95504 -87.06874 -29.49708 3.98804 90.18085 1.95909 -9.38642 -41.10544 -6.56662 -4.0168 -2.73752 81.5808 21.32067 -4.37075 -22.22261 -11.19118 4.24474 3.13452
1.87182 0.31783 0.13439 388.98782 -60.57994 -12.75973 -0.42601 0.05387 11.36271 7.21308 -4.48215 -0.83079 73.008 -12.96008 47.49776 15.27631 93.10182 -26.11656 -5.60901 54.43613 41.81179 -18.99377 10.79772 -85.22684 -29.00596 4.20085 90.88511 2.17058 -9.67582 -41.29968 -6.57478 -4.04307 -2.75529 81.84675 21.30534 -5.37454 -21.16765 -11.48129 4.34443 3.20608
1.87297 0.31795 0.13213 388.75696 -61.12712 -13.52509 -0.83421 0.1483 10.92405 7.91925 -4.94677 -0.83079 73.8086 -12.49873 47.55105 15.38537 94.06744 -26.23105 -5.2894 58.03365 42.25582 -17.5792 9.67154 -86.39879 -28.81576 4.44128 91.48893 2.21669 -9.87317 -41.54889 -6.59479 -4.08615 -2.78053 82.74213 21.48636 -5.31939 -21.31898 -11.49456 4.25661 3.1537
1.87394 0.31806 0.1296 388.61142 -61.64634 -14.2765 -1.30801 0.32275 10.40132 8.62708 -5.50927 -0.83079 74.72224 -11.88773 47.28966 15.24897 95.1731 -26.2289 -5.03934 62.13897 42.34274 -15.68537 8.6035 -88.46965 -28.56559 4.71032 92.06362 2.1997 -10.05989 -41.81798 -6.61779 -4.13117 -2.80622 83.85299 21.7271 -4.95985 -21.89227 -11.42042 4.10964 3.06208
1.87499 0.31819 0.12717 388.40286 -62.18346 -15.05258 -1.74438 0.46178 9.91475 9.32215 -6.03341 -0.83079 75.58924 -11.33065 47.14313 15.22166 96.19466 -26.26645 -4.77824 66.00706 42.56799 -13.48942 7.54195 -89.84885 -28.1005 4.9759 92.65497 2.20732 -10.27377 -42.07021 -6.63821 -4.17223 -2.82991 84.86309 21.92613 -4.81347 -22.26043 -11.39401 3.99848 2.99391
1.87605 0.31825 0.12479 388.28621 -62.6997 -15.75583 -2.21148 0.59306 9.43892 10.07325 -6.53567 -0.83079 76.43404 -10.83054 47.08657 15.20814 97.31699 -26.35729 -4.43187 69.91391 42.89529 -13.39964 6.35292 -92.3133 -28.60172 5.19963 93.23554 2.23002 -10.40226 -42.35925 -6.66328 -4.22473 -2.86037 85.87761 22.18346 -4.37777 -22.67712 -11.33955 3.85217 2.90376
1.87704 0.31845 0.12227 388.00022 -63.25139 -16.60659 -2.63093 0.75986 8.92027 10.70608 -7.10521 -0.83079 77.35184 -10.17724 46.78195 15.10646 98.26078 -26.31417 -4.27594 73.84982 42.92485 -8.92033 5.43917 -92.86066 -27.14892 5.52339 93.82986 2.20883 -10.69847 -42.57504 -6.67979 -4.25481 -2.87737 86.9368 22.33683 -4.45318 -23.09768 -11.31972 3.76322 2.84888
1.8779 0.31904 0.11947 387.25381 -63.91968 -17.856 -2.89983 1.01875 8.29972 11.01073 -7.83702 -0.83079 78.45472 -9.13692 45.83189 14.81901 98.62871 -25.88389 -4.66811 77.81984 42.2182 8.52072 5.26696 -86.78261 -19.67014 6.04522 94.47342 2.06024 -11.51341 -42.58188 -6.66929 -4.21817 -2.85421 88.06837 22.16274 -6.12666 -23.4046 -11.42723 3.85747 2.90763
1.87871 0.31977 0.11654 386.33149 -64.62216 -19.25496 -3.11916 1.30889 7.63941 11.19574 -8.6327 -0.83079 79.62521 -7.94825 44.65343 14.45117 98.81606 -25.33057 -5.24321 81.78585 41.2235 30.18622 5.36865 -78.9321 -10.34033 6.67665 95.1302 1.87326 -12.48772 -42.5142 -6.65057 -4.1598 -2.81805 89.23765 21.88663 -8.30225 -23.70538 -11.57005 4.0094 3.00188
1.87954 0.32042 0.11366 385.47213 -65.30153 -20.59362 -3.36331 1.57644 6.99975 11.43555 -9.39805 -0.83079 80.75833 -6.82803 43.60807 14.12126 99.11844 -24.86423 -5.7082 85.70258 40.36262 49.28633 5.34645 -72.65022 -2.28892 7.30732 95.77825 1.71866 -13.35283 -42.48117 -6.63748 -4.11447 -2.78987 90.39037 21.67464 -10.17138 -24.02399 -11.68919 4.12785 3.07532
1.88038 0.32112 0.11082 384.68382 -66.01291 -21.90295 -3.60025 1.88178 6.34633 11.67375 -10.17165 -0.83079 81.92478 -5.69744 42.42857 13.77724 99.29711 -24.2653 -6.28651 89.85511 39.48062 71.11886 5.3251 -63.26421 7.58305 7.74305 96.43846 1.50072 -14.37006 -42.44522 -6.6167 -4.05612 -2.75316 91.55044 21.3909 -12.35857 -24.2948 -11.83737 4.27471 3.16695
1.88119 0.32176 0.10788 383.70896 -66.6648 -23.30478 -3.83936 2.11519 5.71317 11.88679 -10.94285 -0.83079 83.03466 -4.55613 41.47713 13.44637 99.67584 -23.91155 -6.67505 93.50607 38.57432 88.26941 5.36485 -59.80259 14.13601 8.59656 97.07482 1.40403 -15.11195 -42.39784 -6.6097 -4.01935 -2.73087 92.69836 21.23014 -14.00904 -24.6569 -11.93484 4.37715 3.22986
1.88193 0.32226 0.10472 382.22716 -67.15515 -24.96028 -4.0977 2.13892 5.14777 12.05898 -11.68211 -0.83079 83.98508 -3.41606 41.22319 13.17583 100.76268 -24.29308 -6.46223 95.79147 37.71006 91.30447 5.51826 -74.04648 10.77431 10.69163 97.65888 1.67257 -15.02291 -42.3327 -6.6449 -4.05066 -2.75382 93.82746 21.44603 -14.03236 -25.28133 -11.88159 4.34048 3.20292
1.88264 0.3227 0.10147 380.57113 -67.58236 -26.69617 -4.3591 2.08948 4.60511 12.20946 -12.41714 -0.83079 84.87241 -2.27343 41.20471 12.92204 102.03759 -24.92045 -6.05763 97.5643 36.82477 89.47905 5.72175 -94.12665 4.06266 13.17884 98.21507 2.061 -14.65647 -42.25918 -6.69389 -4.10391 -2.79135 94.93673 21.78649 -13.50369 -25.99345 -11.77693 4.25786 3.14638
1.88336 0.32317 0.09827 379.01568 -68.03156 -28.37385 -4.61844 2.07531 4.04987 12.3711 -13.1611 -0.83079 85.78035 -1.13464 41.07408 12.65859 103.14989 -25.41803 -5.76213 99.55955 35.92691 90.01384 5.89334 -110.94735 -0.9197 15.41487 98.77367 2.38091 -14.43877 -42.1925 -6.73509 -4.1449 -2.82066 96.03924 22.06185 -13.24397 -26.65837 -11.69755 4.19812 3.10477
